<svg width="44" height="44" viewBox="0 0 44 44" fill="none" xmlns="http://www.w3.org/2000/svg">
<path d="M0 22C0 9.84974 9.84974 0 22 0C34.1503 0 44 9.84974 44 22C44 34.1503 34.1503 44 22 44C9.84974 44 0 34.1503 0 22Z" fill="#F2F2F2"/>
<path d="M23.4583 8.875H20.5417V23.4583H23.4583V8.875ZM30.5021 12.0396L28.4312 14.1104C30.7354 15.9625 32.2083 18.8063 32.2083 22C32.2083 27.6438 27.6438 32.2083 22 32.2083C16.3563 32.2083 11.7917 27.6438 11.7917 22C11.7917 18.8063 13.2646 15.9625 15.5542 14.0958L13.4979 12.0396C10.6688 14.4458 8.875 18.0042 8.875 22C8.875 29.2479 14.7521 35.125 22 35.125C29.2479 35.125 35.125 29.2479 35.125 22C35.125 18.0042 33.3313 14.4458 30.5021 12.0396Z" fill="#F6931E"/>
</svg>
